<?xml version="1.0" encoding="UTF-8" standalone="no"?>
<svg
   xmlns:dc="http://purl.org/dc/elements/1.1/"
   xmlns:cc="http://creativecommons.org/ns#"
   xmlns:rdf="http://www.w3.org/1999/02/22-rdf-syntax-ns#"
   xmlns:svg="http://www.w3.org/2000/svg"
   xmlns="http://www.w3.org/2000/svg"
   xmlns:sodipodi="http://sodipodi.sourceforge.net/DTD/sodipodi-0.dtd"
   xmlns:inkscape="http://www.inkscape.org/namespaces/inkscape"
   role="img"
   viewBox="5.52 5.02 388.96 388.96"
   version="1.1"
   id="svg31"
   sodipodi:docname="cnbcn-icon-color-v7.svg"
   inkscape:version="0.92.2 5c3e80d, 2017-08-06"
   inkscape:export-filename="/Users/rael/Desktop/cnbcn-icon-color-v7.png"
   inkscape:export-xdpi="96"
   inkscape:export-ydpi="96">
  <metadata
     id="metadata37">
    <rdf:RDF>
      <cc:Work
         rdf:about="">
        <dc:format>image/svg+xml</dc:format>
        <dc:type
           rdf:resource="http://purl.org/dc/dcmitype/StillImage" />
        <dc:title />
      </cc:Work>
    </rdf:RDF>
  </metadata>
  <defs
     id="defs35">
    <style
       id="style3802"
       type="text/css" />
  </defs>
  <sodipodi:namedview
     pagecolor="#ffffff"
     bordercolor="#666666"
     borderopacity="1"
     objecttolerance="10"
     gridtolerance="10"
     guidetolerance="10"
     inkscape:pageopacity="0"
     inkscape:pageshadow="2"
     inkscape:window-width="1920"
     inkscape:window-height="1155"
     id="namedview33"
     showgrid="false"
     inkscape:zoom="1.7932436"
     inkscape:cx="147.90612"
     inkscape:cy="254.45873"
     inkscape:window-x="0"
     inkscape:window-y="1"
     inkscape:window-maximized="1"
     inkscape:current-layer="svg31"
     showguides="false" />
  <style
     id="style16">svg {enable-background:new 0 0 400 400}</style>
  <style
     id="style18">.st0{fill:#446ca9}.st1{fill:#76c4d5}</style>
  <g
     id="XMLID_15_">
    <g
       id="XMLID_78_">
      <path
         id="XMLID_82_"
         d="M66.7 261.9H13.2v124.7h124.7v-53.4H66.7z"
         class="st0" />
      <path
         id="XMLID_81_"
         d="M333.8 262.3v70.9h-70.9l-.3-.4v53.8h124.6V261.9h-53.8z"
         class="st0" />
      <path
         id="XMLID_80_"
         d="M13.2 137.3h53.9l-.4-.4V66h70.8l.4.4V12.6H13.2z"
         class="st0" />
      <path
         id="XMLID_79_"
         d="M262.6 12.6V66h71.2v71.3h53.4V12.6z"
         class="st0" />
    </g>
    <path
       style="fill:#76c4d5"
       inkscape:connector-curvature="0"
       class="st1"
       d="m 238.175,119.475 v 0 L 220.35,101.65 202.525,83.825 184.7,66 h 77.9 V 12.6 H 137.9 v 53.8 l 70.8,70.9 z"
       id="XMLID_77_"
       sodipodi:nodetypes="ccccccccccc" />
    <path
       style="fill:#76c4d5"
       inkscape:connector-curvature="0"
       class="st1"
       d="m 191.7,261.9 -29.40254,17.82754 c 5.93322,5.94178 -5.93201,-5.94299 0,0 5.93201,5.94299 11.86379,11.8862 17.79611,17.82888 5.93232,5.94268 11.86518,11.88482 17.79933,17.82567 5.93415,5.94085 11.8696,11.88041 17.8071,17.81791 H 196.25 176.8 157.35 137.9 v 53.4 h 124.7 v -53.8 l -35.5,-35.5 z"
       id="XMLID_76_"
       sodipodi:nodetypes="ccssscccccccccc" />
    <path
       style="fill:#76c4d5"
       inkscape:connector-curvature="0"
       class="st1"
       d="m 333.8,137.3 v 77.8 L 316,197.3 298.2,179.5 280.4,161.7 v 0 l -17.8,29.4 35.4,35.4 35.4,35.4 h 53.8 V 137.3 Z"
       id="XMLID_75_"
       sodipodi:nodetypes="cccccccccccc" />
    <path
       style="fill:#76c4d5"
       inkscape:connector-curvature="0"
       class="st1"
       d="M 137.9,208.1 67.1,137.3 H 13.2 v 124.6 h 53.5 v -77.8 l 17.8,17.8 17.8,17.8 17.8,17.8 v 0 z"
       id="XMLID_74_"
       sodipodi:nodetypes="ccccccccccc" />
  </g>
  <g
     style="clip-rule:evenodd;fill:#808080;fill-rule:evenodd;image-rendering:optimizeQuality;shape-rendering:geometricPrecision;text-rendering:geometricPrecision"
     id="g3820"
     transform="matrix(0.01371527,0,0,0.01371527,55.982803,-4.1786214)">
    <g
       id="Capa_x0020_1"
       style="fill:#808080">
      <metadata
         id="CorelCorpID_0Corel-Layer" />
      <path
         id="path3807"
         d="m 10509,20044 c 665,1066 1848,1775 3196,1775 2079,0 3764,-1686 3764,-3764 0,-1348 -709,-2531 -1775,-3196 1083,-661 1806,-1854 1806,-3215 0,-2079 -1686,-3764 -3764,-3764 -1370,0 -2568,732 -3227,1826 C 9854,8596 8646,7851 7265,7851 c -2079,0 -3764,1686 -3764,3764 0,1382 745,2589 1855,3244 -1094,659 -1826,1857 -1826,3227 0,2079 1686,3764 3764,3764 1361,0 2554,-723 3215,-1806 z M 9205,11027 C 8953,10194 8180,9588 7265,9588 c -1119,0 -2027,908 -2027,2027 0,915 607,1688 1439,1940 405,-1185 1343,-2123 2528,-2528 z m 5153,2546 c 815,-263 1405,-1027 1405,-1929 0,-1119 -908,-2027 -2027,-2027 -902,0 -1667,590 -1929,1405 1200,403 2149,1352 2552,2552 z m -3844,3608 c 1279,0 2317,-1037 2317,-2317 0,-1279 -1037,-2317 -2317,-2317 -1279,0 -2317,1037 -2317,2317 0,1279 1037,2317 2317,2317 z m 3190,2901 c 1119,0 2027,-908 2027,-2027 0,-888 -572,-1643 -1367,-1917 -402,1215 -1362,2175 -2577,2577 274,796 1029,1367 1917,1367 z m -6411,31 c 902,0 1667,-590 1929,-1404 -1200,-403 -2149,-1352 -2552,-2552 -815,263 -1405,1027 -1405,1929 0,1119 908,2027 2027,2027 z"
         class="fil0"
         inkscape:connector-curvature="0"
         style="fill:#808080" />
    </g>
  </g>
</svg>
